<svg xmlns="http://www.w3.org/2000/svg" width="60" height="60" viewBox="0 0 60 60" fill="none">
  <path d="M0 0H48C54.6274 0 60 5.37258 60 12V48C60 54.6274 54.6274 60 48 60H0V0Z" fill="#411530"/>
  <path d="M40 40L35.2779 35.2695M37.8947 28.9474C37.8947 31.3204 36.9521 33.5962 35.2741 35.2741C33.5962 36.9521 31.3204 37.8947 28.9474 37.8947C26.5744 37.8947 24.2986 36.9521 22.6206 35.2741C20.9427 33.5962 20 31.3204 20 28.9474C20 26.5744 20.9427 24.2986 22.6206 22.6206C24.2986 20.9427 26.5744 20 28.9474 20C31.3204 20 33.5962 20.9427 35.2741 22.6206C36.9521 24.2986 37.8947 26.5744 37.8947 28.9474V28.9474Z" stroke="white" stroke-width="2" stroke-linecap="round"/>
</svg>